<mxfile host="app.diagrams.net" agent="Mozilla/5.0 (Windows NT 10.0; Win64; x64) AppleWebKit/537.36 (KHTML, like Gecko) Chrome/133.0.0.0 Safari/537.36" version="26.0.16">
  <diagram name="Page-1" id="w-GSn4rVRWABjTmaKZI6">
    <mxGraphModel grid="1" page="1" gridSize="10" guides="1" tooltips="1" connect="1" arrows="1" fold="1" pageScale="1" pageWidth="827" pageHeight="1169" math="0" shadow="0">
      <root>
        <mxCell id="0" />
        <mxCell id="1" parent="0" />
        <mxCell id="LCSe7PTozADsxGTUK0A_-2" value="" style="ellipse;whiteSpace=wrap;html=1;fillColor=#eeeeee;strokeColor=#36393d;" vertex="1" parent="1">
          <mxGeometry x="140" y="780" width="950" height="610" as="geometry" />
        </mxCell>
        <mxCell id="LCSe7PTozADsxGTUK0A_-3" value="Home" style="text;html=1;align=center;verticalAlign=middle;resizable=0;points=[];autosize=1;strokeColor=none;fillColor=none;fontSize=17;" vertex="1" parent="1">
          <mxGeometry x="340" y="830" width="70" height="30" as="geometry" />
        </mxCell>
        <mxCell id="-xcGLYBdehoTpV1QG0vU-5" style="rounded=0;orthogonalLoop=1;jettySize=auto;html=1;exitX=1;exitY=0.5;exitDx=0;exitDy=0;entryX=0;entryY=0.5;entryDx=0;entryDy=0;" edge="1" parent="1" source="LCSe7PTozADsxGTUK0A_-5" target="-xcGLYBdehoTpV1QG0vU-2">
          <mxGeometry relative="1" as="geometry" />
        </mxCell>
        <mxCell id="-xcGLYBdehoTpV1QG0vU-6" style="rounded=0;orthogonalLoop=1;jettySize=auto;html=1;exitX=1;exitY=0.5;exitDx=0;exitDy=0;" edge="1" parent="1" source="LCSe7PTozADsxGTUK0A_-5" target="-xcGLYBdehoTpV1QG0vU-4">
          <mxGeometry relative="1" as="geometry" />
        </mxCell>
        <mxCell id="-xcGLYBdehoTpV1QG0vU-14" style="rounded=0;orthogonalLoop=1;jettySize=auto;html=1;exitX=1;exitY=0;exitDx=0;exitDy=0;entryX=0;entryY=0.5;entryDx=0;entryDy=0;" edge="1" parent="1" source="LCSe7PTozADsxGTUK0A_-5" target="-xcGLYBdehoTpV1QG0vU-1">
          <mxGeometry relative="1" as="geometry" />
        </mxCell>
        <mxCell id="-xcGLYBdehoTpV1QG0vU-23" style="rounded=0;orthogonalLoop=1;jettySize=auto;html=1;exitX=0;exitY=0;exitDx=0;exitDy=0;entryX=0.5;entryY=1;entryDx=0;entryDy=0;" edge="1" parent="1" source="LCSe7PTozADsxGTUK0A_-5" target="-xcGLYBdehoTpV1QG0vU-22">
          <mxGeometry relative="1" as="geometry" />
        </mxCell>
        <mxCell id="LCSe7PTozADsxGTUK0A_-5" value="&lt;font style=&quot;font-size: 14px;&quot;&gt;Spouse of a person with dementia - looking for dementia-related information&lt;/font&gt;" style="ellipse;whiteSpace=wrap;html=1;" vertex="1" parent="1">
          <mxGeometry x="265" y="1070" width="200" height="160" as="geometry" />
        </mxCell>
        <mxCell id="LCSe7PTozADsxGTUK0A_-12" value="&lt;font style=&quot;font-size: 14px;&quot;&gt;search&lt;/font&gt;" style="text;html=1;align=center;verticalAlign=middle;resizable=0;points=[];autosize=1;strokeColor=none;fillColor=none;" vertex="1" parent="1">
          <mxGeometry x="405" y="980" width="70" height="30" as="geometry" />
        </mxCell>
        <mxCell id="LCSe7PTozADsxGTUK0A_-16" value="&lt;font style=&quot;font-size: 14px;&quot;&gt;Get frustrated&lt;/font&gt;" style="text;html=1;align=center;verticalAlign=middle;resizable=0;points=[];autosize=1;strokeColor=none;fillColor=none;" vertex="1" parent="1">
          <mxGeometry x="534" y="1065" width="110" height="30" as="geometry" />
        </mxCell>
        <mxCell id="LCSe7PTozADsxGTUK0A_-17" value="" style="shape=mxgraph.signs.safety.high_voltage_2;html=1;pointerEvents=1;fillColor=#FFB343;strokeColor=none;verticalLabelPosition=bottom;verticalAlign=top;align=center;sketch=0;" vertex="1" parent="1">
          <mxGeometry x="530" y="1065" width="10" height="30" as="geometry" />
        </mxCell>
        <mxCell id="-xcGLYBdehoTpV1QG0vU-8" style="rounded=0;orthogonalLoop=1;jettySize=auto;html=1;exitX=1;exitY=0.5;exitDx=0;exitDy=0;entryX=0;entryY=0;entryDx=0;entryDy=0;" edge="1" parent="1" source="-xcGLYBdehoTpV1QG0vU-1" target="-xcGLYBdehoTpV1QG0vU-2">
          <mxGeometry relative="1" as="geometry" />
        </mxCell>
        <mxCell id="-xcGLYBdehoTpV1QG0vU-12" style="rounded=0;orthogonalLoop=1;jettySize=auto;html=1;exitX=1;exitY=0.5;exitDx=0;exitDy=0;entryX=0;entryY=0;entryDx=0;entryDy=0;" edge="1" parent="1" source="-xcGLYBdehoTpV1QG0vU-1" target="-xcGLYBdehoTpV1QG0vU-4">
          <mxGeometry relative="1" as="geometry" />
        </mxCell>
        <mxCell id="-xcGLYBdehoTpV1QG0vU-1" value="&lt;font style=&quot;font-size: 15px;&quot;&gt;Google&lt;/font&gt;" style="rounded=0;whiteSpace=wrap;html=1;" vertex="1" parent="1">
          <mxGeometry x="510" y="860" width="175" height="60" as="geometry" />
        </mxCell>
        <mxCell id="-xcGLYBdehoTpV1QG0vU-2" value="" style="rounded=0;whiteSpace=wrap;html=1;" vertex="1" parent="1">
          <mxGeometry x="790" y="1010" width="175" height="60" as="geometry" />
        </mxCell>
        <mxCell id="-xcGLYBdehoTpV1QG0vU-3" value="&lt;span style=&quot;font-size: 15px;&quot;&gt;dementia-related websites&lt;/span&gt;" style="rounded=0;whiteSpace=wrap;html=1;" vertex="1" parent="1">
          <mxGeometry x="800" y="1020" width="175" height="60" as="geometry" />
        </mxCell>
        <mxCell id="-xcGLYBdehoTpV1QG0vU-4" value="&lt;span style=&quot;font-size: 15px;&quot;&gt;Dementia support organization website&lt;/span&gt;" style="rounded=0;whiteSpace=wrap;html=1;" vertex="1" parent="1">
          <mxGeometry x="740" y="1220" width="175" height="60" as="geometry" />
        </mxCell>
        <mxCell id="-xcGLYBdehoTpV1QG0vU-11" value="&lt;font style=&quot;font-size: 14px;&quot;&gt;show&lt;/font&gt;" style="text;html=1;align=center;verticalAlign=middle;resizable=0;points=[];autosize=1;strokeColor=none;fillColor=none;" vertex="1" parent="1">
          <mxGeometry x="713" y="910" width="60" height="30" as="geometry" />
        </mxCell>
        <mxCell id="-xcGLYBdehoTpV1QG0vU-13" value="&lt;font style=&quot;font-size: 14px;&quot;&gt;show&lt;/font&gt;" style="text;html=1;align=center;verticalAlign=middle;resizable=0;points=[];autosize=1;strokeColor=none;fillColor=none;" vertex="1" parent="1">
          <mxGeometry x="644" y="940" width="60" height="30" as="geometry" />
        </mxCell>
        <mxCell id="-xcGLYBdehoTpV1QG0vU-22" value="&lt;span style=&quot;font-size: 15px;&quot;&gt;iPad&lt;/span&gt;" style="rounded=0;whiteSpace=wrap;html=1;" vertex="1" parent="1">
          <mxGeometry x="200" y="965" width="130" height="35" as="geometry" />
        </mxCell>
        <mxCell id="-xcGLYBdehoTpV1QG0vU-24" value="&lt;font style=&quot;font-size: 14px;&quot;&gt;use&lt;/font&gt;" style="text;html=1;align=center;verticalAlign=middle;resizable=0;points=[];autosize=1;strokeColor=none;fillColor=none;" vertex="1" parent="1">
          <mxGeometry x="280" y="1035" width="50" height="30" as="geometry" />
        </mxCell>
        <mxCell id="-xcGLYBdehoTpV1QG0vU-25" value="&lt;font style=&quot;font-size: 14px;&quot;&gt;read&lt;/font&gt;" style="text;html=1;align=center;verticalAlign=middle;resizable=0;points=[];autosize=1;strokeColor=none;fillColor=none;" vertex="1" parent="1">
          <mxGeometry x="605" y="1100" width="50" height="30" as="geometry" />
        </mxCell>
        <mxCell id="-xcGLYBdehoTpV1QG0vU-26" value="&lt;font style=&quot;font-size: 14px;&quot;&gt;read&lt;/font&gt;" style="text;html=1;align=center;verticalAlign=middle;resizable=0;points=[];autosize=1;strokeColor=none;fillColor=none;" vertex="1" parent="1">
          <mxGeometry x="572.5" y="1200" width="50" height="30" as="geometry" />
        </mxCell>
      </root>
    </mxGraphModel>
  </diagram>
</mxfile>
